<svg width="53" height="64" viewBox="0 0 53 64" fill="none" xmlns="http://www.w3.org/2000/svg">
<path d="M12.4095 30.2814H14.728C15.6438 30.2817 16.5376 30.0018 17.2897 29.4794C18.0418 28.9569 18.616 28.217 18.9355 27.3588L24.266 13.0434V5.1731C24.2682 4.52336 24.1424 3.87954 23.8959 3.27842C23.6493 2.67728 23.2867 2.1306 22.8288 1.66959C22.371 1.20857 21.8269 0.842257 21.2274 0.591555C20.628 0.340849 19.9851 0.210666 19.3353 0.208435H0.191406V0.365839C1.25162 0.641847 2.19024 1.26194 2.86007 2.12886C3.5299 2.99579 3.89305 4.06053 3.89256 5.15608V58.2869C3.89283 59.3819 3.52953 60.446 2.85966 61.3122C2.18979 62.1784 1.25128 62.7977 0.191406 63.0728V63.2558H19.3353C20.6475 63.2558 21.906 62.7345 22.8339 61.8067C23.7617 60.8788 24.283 59.6203 24.283 58.3081V50.4379L18.9312 36.0884C18.6164 35.2277 18.0439 34.4849 17.2918 33.9612C16.5398 33.4374 15.6445 33.1583 14.728 33.1615H12.4095C12.0281 33.1593 11.663 33.0065 11.3937 32.7364C11.1244 32.4663 10.9727 32.1008 10.9716 31.7193C10.9716 31.338 11.1231 30.9723 11.3927 30.7026C11.6624 30.4329 12.0281 30.2814 12.4095 30.2814Z" fill="white"/>
<path d="M19.3354 63.426H0.191446C0.140673 63.426 0.0919792 63.4058 0.0560772 63.3699C0.0201752 63.334 6.30206e-06 63.2853 6.30206e-06 63.2346V63.0729C-0.000341636 63.03 0.0137268 62.9882 0.0399556 62.9542C0.0661843 62.9203 0.103054 62.8962 0.144649 62.8857C1.1625 62.6209 2.0636 62.0256 2.70653 61.1932C3.34946 60.3609 3.69781 59.3387 3.69691 58.2869V5.15609C3.69803 4.10382 3.34983 3.08093 2.70694 2.24787C2.06406 1.41481 1.16284 0.818701 0.144649 0.553043C0.103054 0.542558 0.0661843 0.518407 0.0399556 0.484464C0.0137268 0.450521 -0.000341636 0.408751 6.30206e-06 0.365856V0.208453C-5.88256e-06 0.15728 0.0200263 0.108138 0.0558112 0.0715587C0.0915954 0.0349789 0.140285 0.0138687 0.191446 0.0127563H19.3354C20.6992 0.013883 22.0067 0.556131 22.9711 1.52045C23.9353 2.48477 24.4776 3.79234 24.4787 5.15609V13.0264C24.4828 13.0489 24.4828 13.0719 24.4787 13.0945L19.1354 27.4099C18.8007 28.3088 18.1991 29.084 17.4113 29.6314C16.6236 30.1789 15.6874 30.4725 14.7281 30.4729H12.4096C12.079 30.4729 11.7619 30.6042 11.5281 30.838C11.2944 31.0717 11.1631 31.3888 11.1631 31.7194C11.1625 31.8831 11.1946 32.0453 11.2574 32.1965C11.3203 32.3476 11.4125 32.4849 11.5289 32.6C11.6435 32.7171 11.7806 32.8099 11.9319 32.8728C12.0832 32.9357 12.2457 32.9673 12.4096 32.9659H14.7281C15.6838 32.9678 16.6161 33.2624 17.3995 33.81C18.1828 34.3576 18.7797 35.132 19.1099 36.0289L24.466 50.3783C24.4704 50.4008 24.4704 50.4239 24.466 50.4464V58.2954C24.4615 59.6547 23.9195 60.9571 22.9583 61.9183C21.9971 62.8795 20.6947 63.4215 19.3354 63.426ZM0.906153 63.0389H19.3354C20.595 63.0366 21.8023 62.5352 22.693 61.6445C23.5837 60.7538 24.0851 59.5465 24.0874 58.2869V50.4932L18.7483 36.1522C18.4447 35.3306 17.8966 34.6218 17.1778 34.1213C16.459 33.6208 15.604 33.3526 14.7281 33.353H12.4096C11.9769 33.3508 11.5627 33.1779 11.2568 32.8721C10.951 32.5662 10.7782 32.1519 10.7759 31.7194C10.7748 31.5039 10.8162 31.2904 10.8977 31.0909C10.9793 30.8915 11.0994 30.7102 11.2511 30.5572C11.4028 30.4043 11.5833 30.2828 11.7821 30.1997C11.9809 30.1166 12.1941 30.0735 12.4096 30.073H14.7281C15.6034 30.0709 16.4573 29.8024 17.1762 29.3031C17.8951 28.8038 18.4449 28.0974 18.7525 27.278L24.0874 12.9924V5.15609C24.0851 3.8961 23.5839 2.68829 22.6933 1.79693C21.8027 0.905577 20.5954 0.403264 19.3354 0.399891H0.906153C1.84845 0.788185 2.65428 1.44745 3.22153 2.29417C3.78879 3.14089 4.09193 4.13693 4.09255 5.15609V58.2869C4.09221 59.3056 3.78913 60.3012 3.22179 61.1473C2.65445 61.9934 1.84844 62.6518 0.906153 63.0389Z" fill="#3C3C3B"/>
<path d="M32.7276 0.208436C31.6495 0.207899 30.5971 0.537407 29.7119 1.15267C28.8266 1.76793 28.151 2.63945 27.7757 3.65009L24.283 13.0094L18.9525 27.3418C18.6348 28.2059 18.0592 28.9514 17.3034 29.4773C16.5478 30.0031 15.6486 30.2838 14.728 30.2814H36.5947C37.5676 30.2812 38.5173 29.9836 39.3164 29.4285C40.1155 28.8735 40.7259 28.0875 41.0658 27.1759L50.038 3.13533C50.2596 2.51761 50.6164 1.95718 51.0823 1.49497C51.5482 1.03275 52.1114 0.680418 52.7309 0.463688V0.208436H32.7276Z" fill="url(#paint0_linear_7_45)"/>
<path d="M36.5947 30.4729H14.7281C14.6773 30.4729 14.6287 30.4527 14.5927 30.4168C14.5568 30.3809 14.5367 30.3322 14.5367 30.2815C14.535 30.2551 14.5386 30.2286 14.5474 30.2036C14.5562 30.1787 14.5699 30.1558 14.5878 30.1363C14.6057 30.1168 14.6274 30.1011 14.6515 30.0902C14.6756 30.0794 14.7016 30.0735 14.7281 30.073C15.6034 30.071 16.4573 29.8024 17.1763 29.3031C17.8951 28.8038 18.445 28.0975 18.7526 27.278L27.5844 3.56928C27.9753 2.52332 28.6758 1.62137 29.5924 0.983684C30.509 0.345988 31.5982 0.00284511 32.7149 0H52.7096C52.7616 0 52.8114 0.0206195 52.8481 0.0573191C52.8848 0.0940185 52.9053 0.143792 52.9053 0.195693V0.450949C52.9059 0.490952 52.8938 0.530107 52.871 0.562918C52.8481 0.59573 52.8154 0.620547 52.7777 0.63388C52.1848 0.840874 51.6454 1.17735 51.1987 1.61888C50.752 2.0604 50.4093 2.59588 50.1954 3.18641L41.2275 27.2312C40.8739 28.1767 40.2417 28.9928 39.4146 29.5715C38.5875 30.1503 37.6042 30.4646 36.5947 30.4729ZM16.6 30.0858H36.5947C37.5273 30.0832 38.437 29.7969 39.2029 29.2651C39.9689 28.7332 40.5549 27.9808 40.883 27.1078L49.8551 3.06728C50.0691 2.47545 50.4017 1.93358 50.8326 1.4749C51.2635 1.01622 51.7835 0.650407 52.3608 0.399896H32.7277C31.6922 0.400948 30.6815 0.716868 29.8297 1.30572C28.978 1.89458 28.3254 2.72853 27.9587 3.69691L19.1355 27.3928C18.9145 27.9877 18.5757 28.5316 18.1392 28.9922C17.7028 29.4528 17.1777 29.8204 16.5957 30.073L16.6 30.0858Z" fill="#3C3C3B"/>
<path d="M50.038 60.3119L41.1892 36.5989C40.8097 35.5915 40.1328 34.7232 39.2484 34.1093C38.364 33.4954 37.3139 33.1649 36.2373 33.1615H14.728C15.6423 33.1609 16.5347 33.4413 17.2843 33.9649C18.0339 34.4884 18.6044 35.2298 18.9185 36.0884L24.2702 50.4379L27.8863 60.129C28.2273 61.0399 28.8379 61.8253 29.6368 62.3801C30.4357 62.935 31.3848 63.2331 32.3575 63.2346H52.7181V62.975C52.1042 62.7534 51.5462 62.4002 51.0832 61.9401C50.6203 61.4801 50.2635 60.9243 50.038 60.3119Z" fill="url(#paint1_linear_7_45)"/>
<path d="M52.7308 63.426H32.3702C31.359 63.4233 30.3726 63.1129 29.542 62.5362C28.7115 61.9594 28.0761 61.1435 27.7204 60.1971L18.7482 36.1523C18.4446 35.3306 17.8965 34.6218 17.1777 34.1213C16.4589 33.6208 15.6039 33.3527 14.728 33.353C14.6816 33.3461 14.6392 33.3228 14.6086 33.2872C14.5779 33.2517 14.561 33.2063 14.561 33.1594C14.561 33.1125 14.5779 33.0671 14.6086 33.0316C14.6392 32.9961 14.6816 32.9728 14.728 32.9659H36.2245C37.3409 32.9693 38.43 33.3121 39.347 33.9488C40.2641 34.5856 40.9659 35.4861 41.3593 36.5309L50.1868 60.2438C50.4056 60.8343 50.752 61.3693 51.2013 61.8105C51.6506 62.2517 52.1917 62.5884 52.7861 62.7964C52.8238 62.8097 52.8565 62.8345 52.8793 62.8673C52.9022 62.9002 52.9143 62.9393 52.9137 62.9793V63.2558C52.9087 63.3014 52.8875 63.3436 52.8539 63.3749C52.8203 63.4061 52.7767 63.4242 52.7308 63.426ZM16.5956 33.353C17.1744 33.605 17.6957 33.9722 18.128 34.4323C18.5602 34.8923 18.8943 35.4356 19.1098 36.0289L28.082 60.0694C28.4101 60.9424 28.996 61.6948 29.762 62.2267C30.528 62.7586 31.4377 63.0448 32.3702 63.0474H52.365C51.7864 62.7972 51.2643 62.4327 50.8301 61.9758C50.3959 61.519 50.0584 60.9791 49.8379 60.3885L41.0105 36.667C40.6463 35.6948 39.9943 34.8567 39.1414 34.2646C38.2885 33.6725 37.2755 33.3545 36.2373 33.353H16.5956Z" fill="#3C3C3B"/>
<defs>
<linearGradient id="paint0_linear_7_45" x1="33.7358" y1="-1.42518" x2="33.7358" y2="30.124" gradientUnits="userSpaceOnUse">
<stop offset="0.04" stop-color="#3A61A9"/>
<stop offset="0.06" stop-color="#3879BA"/>
<stop offset="0.1" stop-color="#3691CB"/>
<stop offset="0.14" stop-color="#34A2D7"/>
<stop offset="0.18" stop-color="#33ACDF"/>
<stop offset="0.23" stop-color="#33AFE1"/>
<stop offset="0.37" stop-color="#3599D1"/>
<stop offset="0.61" stop-color="#387ABB"/>
<stop offset="0.82" stop-color="#3968AE"/>
<stop offset="0.96" stop-color="#3A61A9"/>
</linearGradient>
<linearGradient id="paint1_linear_7_45" x1="33.7358" y1="64.447" x2="33.7358" y2="33.1955" gradientUnits="userSpaceOnUse">
<stop offset="0.09" stop-color="#E94B4C"/>
<stop offset="0.14" stop-color="#DA4243"/>
<stop offset="0.21" stop-color="#CA3839"/>
<stop offset="0.29" stop-color="#C13334"/>
<stop offset="0.4" stop-color="#BE3132"/>
<stop offset="0.63" stop-color="#D5373B"/>
<stop offset="0.84" stop-color="#E73C42"/>
<stop offset="0.88" stop-color="#E23B41"/>
<stop offset="0.92" stop-color="#D5383D"/>
<stop offset="0.97" stop-color="#BF3436"/>
<stop offset="1" stop-color="#A72F2F"/>
</linearGradient>
</defs>
</svg>
